<?xml version="1.0" encoding="utf-8"?>
<!-- Generator: Adobe Illustrator 18.0.0, SVG Export Plug-In . SVG Version: 6.00 Build 0)  -->
<!DOCTYPE svg PUBLIC "-//W3C//DTD SVG 1.1//EN" "http://www.w3.org/Graphics/SVG/1.1/DTD/svg11.dtd">
<svg version="1.1" id="Layer_1" xmlns="http://www.w3.org/2000/svg" xmlns:xlink="http://www.w3.org/1999/xlink" x="0px" y="0px"
	 viewBox="0 0 53.7 60.9" enable-background="new 0 0 53.7 60.9" xml:space="preserve">
<g>
	<path fill="#FDFDFD" d="M26.3,60.9c-1.6,0-2.2-2-3-4.7c-0.3-0.9-0.7-2.4-1-3c-5.7-1-10.9-3.8-15-8.1c-4.9-5.2-7.5-12-7.2-19.2
		c0.2-7.2,3.2-13.8,8.4-18.7C13.5,2.6,20,0,26.9,0c7.4,0,14.6,3.1,19.6,8.5c4.9,5.2,7.5,12,7.2,19.2c-0.2,7.2-3.2,13.8-8.4,18.7
		c-4.4,3.9-9.5,6.3-14.9,7c-0.3,0.6-0.8,2-1.1,2.9C28.3,59.3,27.7,60.9,26.3,60.9z M26.9,2.5c-6.2,0-12.1,2.3-16.7,6.5
		C5.5,13.5,2.8,19.5,2.6,26c-0.2,6.5,2.1,12.7,6.5,17.4c3.8,4,8.6,6.5,13.9,7.4c1.4,0.2,2,2.1,2.8,4.7c0.1,0.5,0.3,1.1,0.5,1.7
		c0.2-0.6,0.4-1.2,0.6-1.7c1-3,1.5-4.4,2.8-4.6c5.1-0.6,9.9-2.8,14-6.4c4.7-4.4,7.4-10.4,7.6-16.9c0.2-6.5-2.1-12.7-6.5-17.4
		C40.1,5.3,33.6,2.5,26.9,2.5z"/>
</g>
<g>
	<g>
		<g>
			<path fill="#FFFFFF" d="M16.6,31.7l-4.3-4.2c-0.5-0.5-0.5-1.1,0-1.5s1.1-0.5,1.5,0l4.3,4.3c0.5,0.5,0.5,1.1,0,1.5
				C17.6,32.2,17,32.2,16.6,31.7z"/>
		</g>
	</g>
	<g>
		<g>
			<path fill="#FFFFFF" d="M12.2,27.5c-0.5-0.5-0.5-1.1,0-1.5l4.3-4.3c0.5-0.5,1.1-0.5,1.5,0c0.5,0.5,0.5,1.1,0,1.5l-4.3,4.3
				C13.3,28,12.7,28,12.2,27.5z"/>
		</g>
	</g>
</g>
<g>
	<g>
		<g>
			<path fill="#FFFFFF" d="M39.9,27.2l-4.3-4.3c-0.5-0.5-0.5-1.1,0-1.5c0.5-0.5,1.1-0.5,1.5,0l4.3,4.3c0.5,0.5,0.5,1.1,0,1.5
				C41,27.7,40.4,27.7,39.9,27.2z"/>
		</g>
	</g>
	<g>
		<g>
			<path fill="#FFFFFF" d="M35.6,31.5c-0.5-0.5-0.5-1.1,0-1.5l4.3-4.3c0.5-0.5,1.1-0.5,1.5,0c0.5,0.5,0.5,1.1,0,1.5l-4.3,4.3
				C36.7,31.9,36.1,31.9,35.6,31.5z"/>
		</g>
	</g>
</g>
<g>
	<g>
		<path fill="#FFFFFF" d="M24.2,27.9H13c-0.6,0-1.1-0.5-1.1-1.1c0-0.6,0.5-1.1,1.1-1.1h11.2c0.6,0,1.1,0.5,1.1,1.1
			c0,0.3-0.2,0.6-0.3,0.8C24.9,27.7,24.6,27.9,24.2,27.9z"/>
	</g>
</g>
<g>
	<g>
		<path fill="#FFFFFF" d="M40.7,27.5H29.5c-0.6,0-1.1-0.5-1.1-1.1c0-0.6,0.5-1.1,1.1-1.1h11.2c0.6,0,1.1,0.5,1.1,1.1
			c0,0.3-0.2,0.6-0.3,0.8C41.3,27.4,41,27.5,40.7,27.5z"/>
	</g>
</g>
</svg>
